<svg width="130" height="111" viewBox="0 0 130 111" fill="none" xmlns="http://www.w3.org/2000/svg">
<path d="M86.1356 51.849C86.1356 52.1439 86.2724 52.4257 86.5156 52.6338C89.9657 55.5866 94.4948 57.0608 99.0236 57.0608C103.552 57.0608 108.082 55.5865 111.532 52.6338C118.432 46.7283 118.432 37.1234 111.532 31.2229C111.025 30.7893 110.204 30.7893 109.698 31.2229L86.5146 51.0595C86.2714 51.2676 86.1346 51.5538 86.1346 51.8486L86.1356 51.849ZM110.576 33.6071C115.566 38.6802 115.277 46.2852 109.699 51.0637C104.121 55.8332 95.2305 56.0847 89.3024 51.8138L110.576 33.6071Z" fill="#328E00"/>
<path d="M105.245 48.8178C105.498 49.0346 105.833 49.143 106.162 49.143C106.491 49.143 106.826 49.0346 107.079 48.8178C107.586 48.3842 107.586 47.6818 107.079 47.2482L104.85 45.3404C104.343 44.9068 103.523 44.9068 103.016 45.3404C102.509 45.774 102.509 46.4764 103.016 46.91L105.245 48.8178Z" fill="#328E00"/>
<path d="M100.016 51.1506V48.4537C100.016 47.838 99.4336 47.3437 98.7193 47.3437C98.005 47.3437 97.4224 47.838 97.4224 48.4537V51.1506C97.4224 51.7663 98.005 52.2606 98.7193 52.2606C99.4336 52.2606 100.016 51.762 100.016 51.1506Z" fill="#328E00"/>
<path d="M106.648 42.7739H109.799C110.514 42.7739 111.096 42.2796 111.096 41.6639C111.096 41.0482 110.514 40.5539 109.799 40.5539H106.648C105.934 40.5539 105.351 41.0482 105.351 41.6639C105.351 42.2796 105.934 42.7739 106.648 42.7739Z" fill="#328E00"/>
<path d="M86.0027 12.1841C85.9875 11.5944 85.4403 11.1175 84.7514 11.0957C83.9306 11.0654 64.5579 10.5624 56.2693 17.6604C53.2701 20.2272 51.5932 23.6266 51.5476 27.2212C51.507 30.4515 52.7989 33.4909 55.1851 35.9061L51.9275 38.6941C51.4208 39.1277 51.4208 39.8301 51.9275 40.2638C52.1808 40.4806 52.5151 40.589 52.8444 40.589C53.1737 40.589 53.5081 40.4806 53.7614 40.2638L57.019 37.4757C59.8003 39.4876 63.2859 40.5889 66.9995 40.5889H67.1717C71.3766 40.5542 75.3435 39.1146 78.3428 36.5478C86.3018 29.7274 86.0231 12.8992 86.0029 12.1842L86.0027 12.1841ZM82.2132 23.6134L73.5044 23.3662L83.343 14.9459C83.2366 17.1052 82.9478 20.3008 82.2132 23.6134ZM71.6704 21.7966L71.3766 14.2521C75.2827 13.6191 79.0367 13.4023 81.5546 13.3329L71.6704 21.7966ZM69.1576 23.9472L62.3081 29.8094L61.8116 16.9538C63.9192 15.9825 66.3357 15.2671 68.798 14.7425L69.1576 23.9472ZM70.9916 25.5169L81.6458 25.8204C81.0379 27.9407 80.2171 30.0132 79.1228 31.804L64.1474 31.3791L70.9916 25.5169ZM54.1421 27.2469C54.1776 24.2334 55.5859 21.3847 58.1038 19.2341C58.4635 18.9262 58.8638 18.6357 59.2741 18.3582L59.801 31.9603L57.0197 34.3407C55.125 32.3505 54.1117 29.8747 54.1421 27.2471V27.2469ZM67.1375 38.3691C64.0826 38.4298 61.1746 37.5366 58.8492 35.9063L61.6305 33.5259L77.5235 33.9768C77.1992 34.3324 76.8649 34.6706 76.5052 34.9784C73.9872 37.1334 70.6587 38.3387 67.1377 38.3691H67.1375Z" fill="#328E00"/>
<path d="M27.4186 16.5455C27.0386 16.6582 26.7397 16.914 26.608 17.2392C26.4864 17.5384 23.7304 24.6667 28.984 29.1625C31.5272 31.3391 34.7899 31.9115 37.5205 31.9115C40.4234 31.9115 42.7185 31.2611 42.8957 31.2091C43.2757 31.0963 43.5746 30.8405 43.7063 30.5153C43.8279 30.2118 46.5839 23.0878 41.3252 18.5921C36.0767 14.1001 27.7678 16.4458 27.4176 16.5455L27.4186 16.5455ZM41.4321 29.2624C39.5981 29.6569 34.2026 30.4895 30.8184 27.593C27.4343 24.6966 28.4221 20.0702 28.8832 18.4962C30.7222 18.1016 36.1177 17.2734 39.4968 20.1656C42.876 23.0577 41.8932 27.6884 41.4321 29.2624Z" fill="#328E00"/>
<path d="M76.6518 44.1835C76.3428 44.0925 69.0373 42.0242 64.4119 45.9786C59.7864 49.933 62.1929 56.1767 62.2942 56.4367C62.4259 56.7618 62.7197 57.0177 63.1047 57.1304C63.2669 57.1781 65.2883 57.7504 67.8467 57.7504C70.243 57.7504 73.1054 57.2475 75.3447 55.331C79.9701 51.3766 77.5637 45.1329 77.4624 44.873C77.3307 44.5521 77.0318 44.2963 76.6518 44.1835ZM73.5108 53.7702C70.7041 56.1724 66.2256 55.5306 64.5791 55.1837C64.1788 53.7746 63.4442 49.9503 66.2458 47.5525C69.0526 45.1504 73.531 45.7921 75.1776 46.139C75.5778 47.5481 76.3124 51.3681 73.5108 53.7702Z" fill="#328E00"/>
<path d="M93.2689 29.2244C93.431 29.2721 95.4524 29.8445 98.0109 29.8445C100.407 29.8445 103.27 29.3415 105.509 27.4251C110.129 23.4707 107.728 17.2269 107.627 16.967C107.495 16.6418 107.201 16.386 106.816 16.2733C106.507 16.1865 99.2015 14.1139 94.576 18.0683C89.9506 22.0227 92.3571 28.2664 92.4583 28.5264C92.5901 28.8559 92.889 29.1117 93.2689 29.2244ZM96.4099 19.6424C99.2166 17.2402 103.695 17.882 105.342 18.2289C105.742 19.638 106.476 23.4623 103.675 25.8601C100.868 28.2623 96.3897 27.6205 94.7431 27.2736C94.3429 25.8645 93.6032 22.0402 96.4099 19.6424Z" fill="#328E00"/>
<path d="M115.428 60.7337H51.852L53.23 57.0698C54.4155 53.9176 52.8247 50.4966 49.5316 49.1133C48.4019 48.6407 47.186 48.4239 45.9144 48.4369C45.8029 45.6273 43.8221 43.0951 40.9191 42.0804C39.9514 41.7422 38.9686 41.5905 37.9351 41.6035C37.8844 37.9656 34.6724 34.9738 30.584 34.7787C28.6893 34.6834 26.835 35.1863 25.3557 36.1706C22.321 34.5099 18.2528 34.8351 15.6438 37.0725C13.0296 39.3098 12.6548 42.7915 14.5901 45.3844C13.44 46.6506 12.8574 48.2331 12.9638 49.8591C13.1968 53.3625 16.6874 56.1116 20.938 56.1506C20.9126 57.0221 21.1001 57.8763 21.4952 58.7088C21.86 59.4762 22.397 60.1482 23.0404 60.738H14.2608C13.5464 60.738 12.9638 61.2323 12.9638 61.848L12.9537 98.7898C12.9537 99.4054 13.5363 99.8998 14.2506 99.8998H115.428C116.142 99.8998 116.725 99.4054 116.725 98.7898V61.8434C116.725 61.2277 116.142 60.7334 115.428 60.7334L115.428 60.7337ZM23.892 57.8676C23.4968 57.0351 23.4208 56.1939 23.6691 55.2921C23.7603 54.9625 23.6691 54.6157 23.4208 54.3512C23.1776 54.0867 22.8027 53.9306 22.4076 53.9306H21.0397C18.1672 53.9306 15.7101 52.0487 15.553 49.7334C15.4669 48.4283 16.0495 47.1578 17.1589 46.2559C17.6605 45.844 17.696 45.1719 17.24 44.721C15.4465 42.9606 15.5479 40.294 17.4781 38.642C19.4032 36.99 22.5241 36.9033 24.5809 38.4425C25.1028 38.8328 25.8931 38.8024 26.3744 38.3732C27.4332 37.4279 28.9278 36.9293 30.4375 36.9944C33.1428 37.1244 35.3416 39.2317 35.3416 41.6902V42.8609C35.3416 43.1991 35.524 43.52 35.833 43.7281C36.1421 43.9362 36.5474 44.0186 36.9324 43.9405C37.9862 43.7324 38.9691 43.7931 39.9367 44.1313C41.9632 44.8424 43.3208 46.6722 43.3208 48.6884V49.6944C43.3208 50.0326 43.5032 50.3534 43.8123 50.5616C44.1213 50.7697 44.5266 50.8477 44.9117 50.774C46.1579 50.5269 47.3282 50.6613 48.387 51.1035C50.5351 52.0054 51.5534 54.2774 50.7581 56.3847L49.1216 60.7294H45.1143L28.6636 46.6499C28.157 46.2164 27.3363 46.2164 26.8296 46.6499C26.3229 47.0835 26.323 47.7859 26.8296 48.2196L41.4505 60.733H29.0993C26.7689 60.733 24.7221 59.6056 23.8912 57.867L23.892 57.8676ZM15.548 97.6796V87.4732H43.3361C44.0505 87.4732 44.6331 86.9789 44.6331 86.3632C44.6331 85.7475 44.0505 85.2532 43.3361 85.2532H15.548V75.0467H43.3361C44.0505 75.0467 44.6331 74.5524 44.6331 73.9367C44.6331 73.321 44.0505 72.8267 43.3361 72.8267H15.548V62.9496L114.131 62.9539V72.8311H86.358C85.6437 72.8311 85.0611 73.3254 85.0611 73.9411C85.0611 74.5568 85.6437 75.0511 86.358 75.0511H114.131V85.2575L86.358 85.2532C85.6437 85.2532 85.0611 85.7475 85.0611 86.3632C85.0611 86.9789 85.6437 87.4732 86.358 87.4732H114.131V97.6796H15.548Z" fill="#328E00"/>
<path d="M74.7021 72.8262H54.9949C54.2806 72.8262 53.698 73.3205 53.698 73.9362C53.698 74.5519 54.2806 75.0462 54.9949 75.0462H74.7021C75.4164 75.0462 75.999 74.5519 75.999 73.9362C75.999 73.3248 75.4164 72.8262 74.7021 72.8262Z" fill="#328E00"/>
<path d="M74.7021 85.2535H54.9949C54.2806 85.2535 53.698 85.7478 53.698 86.3635C53.698 86.9792 54.2806 87.4735 54.9949 87.4735H74.7021C75.4164 87.4735 75.999 86.9792 75.999 86.3635C75.999 85.7522 75.4164 85.2535 74.7021 85.2535Z" fill="#328E00"/>
</svg>
