<svg width="35" height="35" viewBox="0 0 35 35" fill="none" xmlns="http://www.w3.org/2000/svg">
<path d="M2.91663 8.74996C2.91663 7.94458 3.56958 7.29163 4.37496 7.29163H30.625C31.4304 7.29163 32.0833 7.94458 32.0833 8.74996C32.0833 9.55534 31.4304 10.2083 30.625 10.2083H4.37496C3.56958 10.2083 2.91663 9.55534 2.91663 8.74996Z" fill="white"/>
<path d="M7.29163 17.5C7.29163 16.6946 7.94458 16.0416 8.74996 16.0416H26.25C27.0553 16.0416 27.7083 16.6946 27.7083 17.5C27.7083 18.3053 27.0553 18.9583 26.25 18.9583H8.74996C7.94458 18.9583 7.29163 18.3053 7.29163 17.5Z" fill="white"/>
<path d="M13.125 24.7916C12.3196 24.7916 11.6666 25.4446 11.6666 26.25C11.6666 27.0553 12.3196 27.7083 13.125 27.7083H21.875C22.6803 27.7083 23.3333 27.0553 23.3333 26.25C23.3333 25.4446 22.6803 24.7916 21.875 24.7916H13.125Z" fill="white"/>
</svg>
