<svg width="119" height="119" viewBox="0 0 119 119" fill="none" xmlns="http://www.w3.org/2000/svg">
<path d="M54.1915 12.2491C53.9684 12.0259 53.6616 11.9004 53.3455 11.9004C53.0295 11.9004 52.7273 12.0259 52.5042 12.2491C46.1776 18.5756 46.1776 28.8723 52.5042 35.1982C55.5675 38.2662 59.6442 39.9489 63.9768 39.9489C68.3093 39.9489 72.3811 38.2614 75.4493 35.1982C75.9142 34.7333 75.9142 33.9803 75.4493 33.5154L54.1915 12.2491ZM63.9812 37.5732C60.2811 37.5732 56.804 36.1322 54.1915 33.5198C49.0783 28.4019 48.8087 20.2493 53.3874 14.814L72.8924 34.328C70.4009 36.4245 67.2771 37.5726 63.9814 37.5726L63.9812 37.5732Z" fill="#328E00"/>
<path d="M56.5906 31.1126C56.823 31.345 57.1298 31.4612 57.432 31.4612C57.7341 31.4612 58.0409 31.345 58.2733 31.1126L60.3186 29.0672C60.7835 28.6024 60.7835 27.8494 60.3186 27.3845C59.8538 26.9196 59.1008 26.9196 58.6359 27.3845L56.5906 29.4298C56.1257 29.8946 56.1258 30.6477 56.5906 31.1126Z" fill="#328E00"/>
<path d="M64.2549 34.8025C64.915 34.8025 65.4449 34.2726 65.4449 33.6125V30.7212C65.4449 30.0611 64.915 29.5312 64.2549 29.5312C63.5949 29.5312 63.0649 30.0611 63.0649 30.7212V33.6125C63.0649 34.268 63.5995 34.8025 64.2549 34.8025Z" fill="#328E00"/>
<path d="M52.9033 23.447C52.9033 24.107 53.4332 24.637 54.0933 24.637H56.9846C57.6447 24.637 58.1746 24.107 58.1746 23.447C58.1746 22.7869 57.6447 22.257 56.9846 22.257H54.0933C53.4332 22.257 52.9033 22.7869 52.9033 23.447Z" fill="#328E00"/>
<path d="M64.3721 106.406C64.7207 106.285 64.9949 106.011 65.1158 105.662C65.2181 105.365 67.5562 98.2618 63.0612 93.767C58.5661 89.2674 51.4497 91.6242 51.1512 91.7311C50.8026 91.8519 50.5284 92.1262 50.4075 92.4748C50.3052 92.7723 47.9671 99.8751 52.4621 104.37C54.6377 106.545 57.4174 107.117 59.7509 107.117C62.2425 107.117 64.2134 106.462 64.3715 106.406L64.3721 106.406ZM54.146 102.687C51.3429 99.8795 52.11 95.4123 52.5004 93.8225C54.0902 93.4274 58.5713 92.6465 61.3789 95.4541C64.182 98.2617 63.4149 102.729 63.0245 104.319C61.4301 104.709 56.9536 105.495 54.146 102.687Z" fill="#328E00"/>
<path d="M29.9819 27.4771C23.86 26.3522 18.7186 27.5004 15.5115 30.7078C12.3045 33.9152 11.156 39.0564 12.2809 45.1782C13.2571 50.51 15.9346 55.8882 19.2675 59.2212C24.8084 64.7621 33.2083 65.9289 40.0092 62.2148L70.0101 94.5124C71.2373 95.8325 72.9107 96.5809 74.7143 96.6136H74.8399C76.597 96.6136 78.2425 95.9303 79.4883 94.6845C80.762 93.4108 81.4499 91.7095 81.4127 89.9058C81.3802 88.1022 80.6318 86.4288 79.3116 85.2016L47.0229 55.2056C50.737 48.405 49.5703 40.0053 44.0293 34.4639C40.6964 31.1357 35.3134 28.4582 29.9813 27.4773L29.9819 27.4771ZM44.7032 56.3029L77.694 86.9504C78.54 87.736 79.0141 88.8051 79.0374 89.9579C79.056 91.1107 78.619 92.1938 77.8056 93.0073C76.9921 93.8207 75.9183 94.2345 74.7562 94.2391C73.6034 94.2159 72.5343 93.7417 71.7533 92.8957L41.1059 59.901C40.8734 59.65 40.5574 59.5198 40.232 59.5198C40.0181 59.5198 39.7997 59.5756 39.6044 59.6964C33.6079 63.4152 25.9383 62.5227 20.9502 57.5395C17.9427 54.532 15.5162 49.6279 14.619 44.747C13.6568 39.4943 14.5957 34.9899 17.1942 32.3909C19.7927 29.7924 24.2971 28.8534 29.5504 29.8203C34.4313 30.7174 39.3307 33.1393 42.3429 36.1515C47.3307 41.1439 48.2185 48.8141 44.4998 54.8107C44.2023 55.2895 44.286 55.917 44.7043 56.3028L44.7032 56.3029Z" fill="#328E00"/>
<path d="M73.2456 56.4041C73.2085 60.1275 74.4914 63.6277 76.8575 66.3981L73.5943 69.6659C73.1295 70.1307 73.1295 70.8838 73.5943 71.3487C73.8267 71.5811 74.1335 71.6973 74.4357 71.6973C74.7378 71.6973 75.0446 71.5811 75.2771 71.3487L78.5449 68.0808C81.3572 70.4795 84.8528 71.688 88.381 71.688C92.3833 71.688 96.4135 70.1448 99.4857 67.0674C107.625 58.9327 107.039 39.8879 107.012 39.0836C106.988 38.4514 106.477 37.9493 105.845 37.9355C105.027 37.9262 85.6931 37.6426 77.8699 45.4613C74.932 48.4038 73.2865 52.2898 73.2446 56.4034L73.2456 56.4041ZM80.2276 66.3981L83.0585 63.5672L98.9331 64.0924C98.5798 64.5526 98.2033 64.9896 97.8035 65.3893C92.9459 70.2423 85.3035 70.6002 80.2272 66.3981L80.2276 66.3981ZM103.535 52.3452L94.5819 52.0477L104.614 42.016C104.548 44.5122 104.302 48.3472 103.535 52.3452H103.535ZM100.411 61.7629L85.3634 61.2655L92.2756 54.3533L103.013 54.7066C102.404 57.1982 101.563 59.6386 100.41 61.7629L100.411 61.7629ZM92.8991 50.3647L92.6062 41.5187C96.5713 40.7611 100.388 40.4775 102.893 40.3753L92.8991 50.3647ZM90.5981 52.6703L83.6813 59.5825L83.1839 44.5826C85.2942 43.4716 87.7394 42.6442 90.2448 42.0352L90.5981 52.6703ZM80.8503 46.0278L81.3756 61.8835L78.5447 64.7144C76.6249 62.4041 75.5929 59.5035 75.6254 56.4263C75.6626 52.9353 77.0572 49.6395 79.5533 47.1434C79.9485 46.7529 80.3854 46.381 80.8502 46.0278H80.8503Z" fill="#328E00"/>
<path d="M30.3263 107.11H30.4936C34.152 107.11 37.5917 105.832 40.3204 103.493L43.5883 106.761C43.8207 106.994 44.1275 107.11 44.4296 107.11C44.7318 107.11 45.0386 106.994 45.271 106.761C45.7358 106.296 45.7358 105.543 45.271 105.079L42.0032 101.811C47.1257 95.805 46.7771 86.657 40.9944 80.8687C32.8597 72.7339 13.8198 73.3103 13.0106 73.3428C12.3784 73.3661 11.8763 73.8774 11.8624 74.5096C11.8438 75.3277 11.5649 94.6613 19.3836 102.48C22.3214 105.422 26.2075 107.063 30.3257 107.109L30.3263 107.11ZM30.4936 104.73H30.3541C26.8632 104.693 23.5674 103.298 21.0713 100.802C20.6761 100.407 20.3043 99.97 19.9556 99.5052L35.8114 98.9799L38.6423 101.815C36.3599 103.703 33.5151 104.73 30.4936 104.73L30.4936 104.73ZM15.9577 90.1108L26.5884 89.7575L33.5006 96.6698L18.5007 97.1671C17.3897 95.0614 16.5623 92.6163 15.9579 90.1108L15.9577 90.1108ZM28.2723 88.0795L28.6255 77.3417C31.1171 77.9507 33.5529 78.7967 35.6818 79.9448L35.1845 94.9924L28.2723 88.0795ZM25.9666 85.7739L15.9349 75.7382C18.4312 75.8079 22.2661 76.0543 26.2641 76.8213L25.9666 85.7739ZM14.2987 77.4625L24.2877 87.4516L15.4418 87.7444C14.6794 83.7839 14.4005 79.9676 14.2983 77.4618L14.2987 77.4625ZM40.3161 100.128L37.4851 97.2971L38.0104 81.4225C38.4706 81.7758 38.9076 82.1523 39.3073 82.5521C44.1649 87.4097 44.5182 95.0521 40.316 100.128L40.3161 100.128Z" fill="#328E00"/>
<path d="M106.317 87.2796C106.196 86.9309 105.921 86.6567 105.573 86.5358C105.247 86.4289 97.6287 83.914 92.812 88.7345C87.9963 93.5549 90.5204 101.193 90.632 101.513C90.7528 101.862 91.0271 102.136 91.3757 102.257C91.5431 102.313 93.6442 103.01 96.3077 103.01C98.8086 103.01 101.802 102.396 104.136 100.063C108.951 95.2424 106.423 87.6045 106.316 87.2802L106.317 87.2796ZM102.449 98.3803C99.3485 101.485 94.3979 100.593 92.7153 100.17C92.2876 98.4872 91.3765 93.5366 94.4909 90.4221C97.5915 87.317 102.547 88.2095 104.225 88.6325C104.657 90.3106 105.563 95.2612 102.449 98.3803Z" fill="#328E00"/>
<path d="M85.5501 32.4414C85.7174 32.4972 87.8185 33.1945 90.4821 33.1945C92.9829 33.1945 95.9765 32.5809 98.3101 30.2473C103.126 25.4269 100.602 17.789 100.49 17.4687C100.369 17.1201 100.095 16.8458 99.7464 16.7249C99.421 16.618 91.8069 14.1032 86.9856 18.9237C82.1699 23.7441 84.694 31.382 84.8056 31.7023C84.9264 32.0463 85.2007 32.3205 85.5493 32.4414L85.5501 32.4414ZM88.6738 20.6019C91.779 17.4968 96.725 18.3893 98.4077 18.8122C98.8353 20.495 99.7464 25.4456 96.632 28.56C93.5269 31.6651 88.5808 30.7726 86.8982 30.3497C86.4659 28.6669 85.5548 23.7163 88.6738 20.6019Z" fill="#328E00"/>
</svg>
