<?xml version="1.0" encoding="UTF-8"?>
<svg width="1200pt" height="1200pt" version="1.1" viewBox="0 0 1200 1200" xmlns="http://www.w3.org/2000/svg">
 <path d="m348.23 90c-59.203 0-107.84 48.633-107.84 107.84v882.18c0.003906 7.1641 2.5703 14.086 7.2344 19.523 4.6641 5.4336 11.121 9.0234 18.199 10.113 7.082 1.0898 14.316-0.39062 20.402-4.1719l313.77-194.64 313.77 194.64c6.0859 3.7812 13.32 5.2617 20.402 4.1719 7.0781-1.0898 13.535-4.6797 18.199-10.113 4.6641-5.4375 7.2305-12.359 7.2344-19.523v-882.18c0-59.203-48.633-107.84-107.84-107.84zm0 60.008h503.53c27.031 0 47.828 20.797 47.828 47.828v828.37l-283.88-176.04 0.003906 0.003906c-4.7305-2.9102-10.172-4.4492-15.723-4.4492s-10.992 1.5391-15.723 4.4492l-283.88 176.04v-828.37c0-27.031 20.797-47.828 47.828-47.828z" fill-rule="evenodd"/>
</svg>
